<svg width="814" height="144" viewBox="0 0 814 144" fill="none" xmlns="http://www.w3.org/2000/svg">
<g clip-path="url(#clip0_1_2)">
<path d="M781.752 128.403L813.985 15.8395H775.673L761.318 84.7164L744.308 15.8395H718.664L701.602 84.7164L687.095 15.8395H648.936L681.169 128.403H716.927L731.486 64.5847L745.993 128.403H781.752Z" fill="white"/>
<path d="M524.766 72.1979C524.766 106.79 551.636 130.447 586.372 130.447C621.109 130.447 647.978 106.79 647.978 72.1979C647.978 37.6062 621.109 14 586.372 14C551.636 14 524.766 37.6062 524.766 72.1979ZM613.395 72.1979C613.395 87.8843 602.719 100.403 586.372 100.403C570.026 100.403 559.4 87.8843 559.4 72.1979C559.4 56.5116 570.026 44.0442 586.372 44.0442C602.719 44.0442 613.395 56.5116 613.395 72.1979Z" fill="white"/>
<path d="M517.198 128.403V98.7166H474.543V15.8395H440.42V128.403H517.198Z" fill="white"/>
<path d="M374.671 128.403V85.6872H424.783V57.3291H374.671V44.1975H425.958V15.8395H340.547V128.403H374.671Z" fill="white"/>
<path d="M325.411 128.403V100.045H274.123V85.6872H324.236V57.3291H274.123V44.1975H325.411V15.8395H240V128.403H325.411Z" fill="white"/>
<path fill-rule="evenodd" clip-rule="evenodd" d="M82.5821 58.0873C80.2569 58.5217 78.0978 59.5313 75.8237 61.2564C74.8144 62.0231 70.4451 65.7801 59.2919 75.4282C40.601 91.6063 34.4431 96.9479 29.154 101.548C25.7812 104.475 22.4084 107.414 19.0356 110.34C15.88 113.075 13.2993 115.401 13.2993 115.516C13.2993 115.618 13.8614 116.436 14.5386 117.343C18.9973 123.285 24.938 128.933 30.9426 132.959C40.205 139.169 50.63 143.003 60.5056 143.846C62.1281 143.987 75.977 144.025 108.415 143.987C108.415 143.987 153.402 143.936 154.049 143.936C157.747 143.936 162.391 141.095 165.037 138.799C167.017 137.086 192.147 112.921 194.306 110.66C194.893 110.046 195.583 109.062 195.954 108.308C196.529 107.171 196.605 106.851 196.605 105.753C196.605 103.606 195.364 100.871 192.854 100.871C190.344 100.871 178.873 100.641 137.403 100.577C137.403 100.577 82.5792 100.488 81.7006 100.488C80.822 100.488 76.5519 98.2997 76.5519 97.8168C76.5519 97.3339 77.1141 97.1779 81.164 93.5231C83.0803 91.8107 84.2046 91.044 85.661 90.4562C86.3765 90.175 88.0373 90.1495 109.117 90.06L131.807 89.9706L133.366 89.485C135.18 88.9227 137.288 87.8621 138.706 86.827C139.715 86.073 147.406 78.5974 156.017 69.9972C160.322 65.6907 161.038 64.9112 161.485 63.94C162.175 62.4832 162.2 61.397 161.562 60.1319C161.038 59.084 160.016 58.2789 158.84 58.0106C157.601 57.7294 84.1407 57.7933 82.5821 58.0873Z" fill="white"/>
<path fill-rule="evenodd" clip-rule="evenodd" d="M71.8119 0.0851935C63.776 0.174643 61.5786 0.351295 60.1605 0.594095C52.4695 1.87198 46.005 3.94216 39.7832 7.13688C19.8403 17.36 5.44202 36.6561 1.30269 58.6869C-1.22691 72.1942 -0.0387673 86.7621 4.57327 98.8382C4.86711 99.6049 5.16095 100.231 5.22484 100.231C5.30149 100.231 6.73237 99.0682 8.41877 97.637C13.7079 93.1771 22.6765 85.7015 38.5312 72.4881C54.1431 59.4792 57.9886 56.2589 64.9641 50.3806C68.5206 47.3881 73.8839 41.9849 79.0813 41.9849C79.459 41.9849 148.313 41.7804 155.055 41.7804C161.797 41.7804 168.333 34.8796 175.512 27.6981C182.692 20.5166 186.671 16.747 192.364 11.3923C195.507 8.42755 196.538 6.97234 196.554 4.45332C196.567 2.39592 195.077 0.085194 193.571 0.0851927C192.065 0.0851915 89.4424 -0.106491 71.8119 0.0851935Z" fill="white"/>
</g>
<defs>
<clipPath id="clip0_1_2">
<rect width="814" height="144" fill="white"/>
</clipPath>
</defs>
</svg>
